%TF.GenerationSoftware,KiCad,Pcbnew,4.0.6*%
%TF.CreationDate,2017-11-04T14:18:22-07:00*%
%TF.ProjectId,Titan,546974616E2E6B696361645F70636200,rev?*%
%TF.FileFunction,Legend,Bot*%
%FSLAX46Y46*%
G04 Gerber Fmt 4.6, Leading zero omitted, Abs format (unit mm)*
G04 Created by KiCad (PCBNEW 4.0.6) date 11/04/17 14:18:22*
%MOMM*%
%LPD*%
G01*
G04 APERTURE LIST*
%ADD10C,0.100000*%
%ADD11C,0.300000*%
%ADD12C,0.010000*%
G04 APERTURE END LIST*
D10*
D11*
X253344286Y-104072571D02*
X253058572Y-105072571D01*
X252772858Y-104358286D01*
X252487143Y-105072571D01*
X252201429Y-104072571D01*
X251772857Y-104072571D02*
X251487143Y-105072571D01*
X251201429Y-104358286D01*
X250915714Y-105072571D01*
X250630000Y-104072571D01*
X250201428Y-104072571D02*
X249915714Y-105072571D01*
X249630000Y-104358286D01*
X249344285Y-105072571D01*
X249058571Y-104072571D01*
X248487142Y-104929714D02*
X248415714Y-105001143D01*
X248487142Y-105072571D01*
X248558571Y-105001143D01*
X248487142Y-104929714D01*
X248487142Y-105072571D01*
X247129999Y-105072571D02*
X247129999Y-104286857D01*
X247201428Y-104144000D01*
X247344285Y-104072571D01*
X247629999Y-104072571D01*
X247772856Y-104144000D01*
X247129999Y-105001143D02*
X247272856Y-105072571D01*
X247629999Y-105072571D01*
X247772856Y-105001143D01*
X247844285Y-104858286D01*
X247844285Y-104715429D01*
X247772856Y-104572571D01*
X247629999Y-104501143D01*
X247272856Y-104501143D01*
X247129999Y-104429714D01*
X246415713Y-105072571D02*
X246415713Y-104072571D01*
X246415713Y-103572571D02*
X246487142Y-103644000D01*
X246415713Y-103715429D01*
X246344285Y-103644000D01*
X246415713Y-103572571D01*
X246415713Y-103715429D01*
X245415713Y-103572571D02*
X245272856Y-103572571D01*
X245129999Y-103644000D01*
X245058570Y-103715429D01*
X244987141Y-103858286D01*
X244915713Y-104144000D01*
X244915713Y-104501143D01*
X244987141Y-104786857D01*
X245058570Y-104929714D01*
X245129999Y-105001143D01*
X245272856Y-105072571D01*
X245415713Y-105072571D01*
X245558570Y-105001143D01*
X245629999Y-104929714D01*
X245701427Y-104786857D01*
X245772856Y-104501143D01*
X245772856Y-104144000D01*
X245701427Y-103858286D01*
X245629999Y-103715429D01*
X245558570Y-103644000D01*
X245415713Y-103572571D01*
X244415713Y-103572571D02*
X243487142Y-103572571D01*
X243987142Y-104144000D01*
X243772856Y-104144000D01*
X243629999Y-104215429D01*
X243558570Y-104286857D01*
X243487142Y-104429714D01*
X243487142Y-104786857D01*
X243558570Y-104929714D01*
X243629999Y-105001143D01*
X243772856Y-105072571D01*
X244201428Y-105072571D01*
X244344285Y-105001143D01*
X244415713Y-104929714D01*
X242844285Y-104929714D02*
X242772857Y-105001143D01*
X242844285Y-105072571D01*
X242915714Y-105001143D01*
X242844285Y-104929714D01*
X242844285Y-105072571D01*
X242129999Y-105072571D02*
X242129999Y-104072571D01*
X242129999Y-104215429D02*
X242058571Y-104144000D01*
X241915713Y-104072571D01*
X241701428Y-104072571D01*
X241558571Y-104144000D01*
X241487142Y-104286857D01*
X241487142Y-105072571D01*
X241487142Y-104286857D02*
X241415713Y-104144000D01*
X241272856Y-104072571D01*
X241058571Y-104072571D01*
X240915713Y-104144000D01*
X240844285Y-104286857D01*
X240844285Y-105072571D01*
X239558571Y-105001143D02*
X239701428Y-105072571D01*
X239987142Y-105072571D01*
X240129999Y-105001143D01*
X240201428Y-104858286D01*
X240201428Y-104286857D01*
X240129999Y-104144000D01*
X239987142Y-104072571D01*
X239701428Y-104072571D01*
X239558571Y-104144000D01*
X239487142Y-104286857D01*
X239487142Y-104429714D01*
X240201428Y-104572571D01*
X183698215Y-85617857D02*
X184198215Y-85617857D01*
X184198215Y-86403571D02*
X184198215Y-84903571D01*
X183483929Y-84903571D01*
X182698215Y-86403571D02*
X182841073Y-86332143D01*
X182912501Y-86260714D01*
X182983930Y-86117857D01*
X182983930Y-85689286D01*
X182912501Y-85546429D01*
X182841073Y-85475000D01*
X182698215Y-85403571D01*
X182483930Y-85403571D01*
X182341073Y-85475000D01*
X182269644Y-85546429D01*
X182198215Y-85689286D01*
X182198215Y-86117857D01*
X182269644Y-86260714D01*
X182341073Y-86332143D01*
X182483930Y-86403571D01*
X182698215Y-86403571D01*
X181555358Y-86403571D02*
X181555358Y-85403571D01*
X181555358Y-85689286D02*
X181483930Y-85546429D01*
X181412501Y-85475000D01*
X181269644Y-85403571D01*
X181126787Y-85403571D01*
X178841073Y-86403571D02*
X178841073Y-84903571D01*
X178841073Y-86332143D02*
X178983930Y-86403571D01*
X179269644Y-86403571D01*
X179412502Y-86332143D01*
X179483930Y-86260714D01*
X179555359Y-86117857D01*
X179555359Y-85689286D01*
X179483930Y-85546429D01*
X179412502Y-85475000D01*
X179269644Y-85403571D01*
X178983930Y-85403571D01*
X178841073Y-85475000D01*
X177555359Y-86332143D02*
X177698216Y-86403571D01*
X177983930Y-86403571D01*
X178126787Y-86332143D01*
X178198216Y-86189286D01*
X178198216Y-85617857D01*
X178126787Y-85475000D01*
X177983930Y-85403571D01*
X177698216Y-85403571D01*
X177555359Y-85475000D01*
X177483930Y-85617857D01*
X177483930Y-85760714D01*
X178198216Y-85903571D01*
X177055359Y-85403571D02*
X176483930Y-85403571D01*
X176841073Y-86403571D02*
X176841073Y-85117857D01*
X176769645Y-84975000D01*
X176626787Y-84903571D01*
X176483930Y-84903571D01*
X175341073Y-86403571D02*
X175341073Y-85617857D01*
X175412502Y-85475000D01*
X175555359Y-85403571D01*
X175841073Y-85403571D01*
X175983930Y-85475000D01*
X175341073Y-86332143D02*
X175483930Y-86403571D01*
X175841073Y-86403571D01*
X175983930Y-86332143D01*
X176055359Y-86189286D01*
X176055359Y-86046429D01*
X175983930Y-85903571D01*
X175841073Y-85832143D01*
X175483930Y-85832143D01*
X175341073Y-85760714D01*
X173983930Y-85403571D02*
X173983930Y-86403571D01*
X174626787Y-85403571D02*
X174626787Y-86189286D01*
X174555359Y-86332143D01*
X174412501Y-86403571D01*
X174198216Y-86403571D01*
X174055359Y-86332143D01*
X173983930Y-86260714D01*
X173055358Y-86403571D02*
X173198216Y-86332143D01*
X173269644Y-86189286D01*
X173269644Y-84903571D01*
X172698216Y-85403571D02*
X172126787Y-85403571D01*
X172483930Y-84903571D02*
X172483930Y-86189286D01*
X172412502Y-86332143D01*
X172269644Y-86403571D01*
X172126787Y-86403571D01*
X170483930Y-85403571D02*
X170483930Y-86403571D01*
X170483930Y-85546429D02*
X170412502Y-85475000D01*
X170269644Y-85403571D01*
X170055359Y-85403571D01*
X169912502Y-85475000D01*
X169841073Y-85617857D01*
X169841073Y-86403571D01*
X168912501Y-86403571D02*
X169055359Y-86332143D01*
X169126787Y-86260714D01*
X169198216Y-86117857D01*
X169198216Y-85689286D01*
X169126787Y-85546429D01*
X169055359Y-85475000D01*
X168912501Y-85403571D01*
X168698216Y-85403571D01*
X168555359Y-85475000D01*
X168483930Y-85546429D01*
X168412501Y-85689286D01*
X168412501Y-86117857D01*
X168483930Y-86260714D01*
X168555359Y-86332143D01*
X168698216Y-86403571D01*
X168912501Y-86403571D01*
X167769644Y-85403571D02*
X167769644Y-86403571D01*
X167769644Y-85546429D02*
X167698216Y-85475000D01*
X167555358Y-85403571D01*
X167341073Y-85403571D01*
X167198216Y-85475000D01*
X167126787Y-85617857D01*
X167126787Y-86403571D01*
X166412501Y-85832143D02*
X165269644Y-85832143D01*
X164555358Y-86403571D02*
X164555358Y-84903571D01*
X163912501Y-86332143D02*
X163698215Y-86403571D01*
X163341072Y-86403571D01*
X163198215Y-86332143D01*
X163126786Y-86260714D01*
X163055358Y-86117857D01*
X163055358Y-85975000D01*
X163126786Y-85832143D01*
X163198215Y-85760714D01*
X163341072Y-85689286D01*
X163626786Y-85617857D01*
X163769644Y-85546429D01*
X163841072Y-85475000D01*
X163912501Y-85332143D01*
X163912501Y-85189286D01*
X163841072Y-85046429D01*
X163769644Y-84975000D01*
X163626786Y-84903571D01*
X163269644Y-84903571D01*
X163055358Y-84975000D01*
X162126787Y-84903571D02*
X161841073Y-84903571D01*
X161698215Y-84975000D01*
X161555358Y-85117857D01*
X161483930Y-85403571D01*
X161483930Y-85903571D01*
X161555358Y-86189286D01*
X161698215Y-86332143D01*
X161841073Y-86403571D01*
X162126787Y-86403571D01*
X162269644Y-86332143D01*
X162412501Y-86189286D01*
X162483930Y-85903571D01*
X162483930Y-85403571D01*
X162412501Y-85117857D01*
X162269644Y-84975000D01*
X162126787Y-84903571D01*
X159483929Y-86403571D02*
X159626787Y-86332143D01*
X159698215Y-86189286D01*
X159698215Y-84903571D01*
X158269644Y-86403571D02*
X158269644Y-85617857D01*
X158341073Y-85475000D01*
X158483930Y-85403571D01*
X158769644Y-85403571D01*
X158912501Y-85475000D01*
X158269644Y-86332143D02*
X158412501Y-86403571D01*
X158769644Y-86403571D01*
X158912501Y-86332143D01*
X158983930Y-86189286D01*
X158983930Y-86046429D01*
X158912501Y-85903571D01*
X158769644Y-85832143D01*
X158412501Y-85832143D01*
X158269644Y-85760714D01*
X157698215Y-85403571D02*
X157341072Y-86403571D01*
X156983930Y-85403571D02*
X157341072Y-86403571D01*
X157483930Y-86760714D01*
X157555358Y-86832143D01*
X157698215Y-86903571D01*
X156198215Y-86403571D02*
X156341073Y-86332143D01*
X156412501Y-86260714D01*
X156483930Y-86117857D01*
X156483930Y-85689286D01*
X156412501Y-85546429D01*
X156341073Y-85475000D01*
X156198215Y-85403571D01*
X155983930Y-85403571D01*
X155841073Y-85475000D01*
X155769644Y-85546429D01*
X155698215Y-85689286D01*
X155698215Y-86117857D01*
X155769644Y-86260714D01*
X155841073Y-86332143D01*
X155983930Y-86403571D01*
X156198215Y-86403571D01*
X154412501Y-85403571D02*
X154412501Y-86403571D01*
X155055358Y-85403571D02*
X155055358Y-86189286D01*
X154983930Y-86332143D01*
X154841072Y-86403571D01*
X154626787Y-86403571D01*
X154483930Y-86332143D01*
X154412501Y-86260714D01*
X153912501Y-85403571D02*
X153341072Y-85403571D01*
X153698215Y-84903571D02*
X153698215Y-86189286D01*
X153626787Y-86332143D01*
X153483929Y-86403571D01*
X153341072Y-86403571D01*
X152769644Y-86332143D02*
X152769644Y-86403571D01*
X152841072Y-86546429D01*
X152912501Y-86617857D01*
X150769643Y-86403571D02*
X150912501Y-86332143D01*
X150983929Y-86260714D01*
X151055358Y-86117857D01*
X151055358Y-85689286D01*
X150983929Y-85546429D01*
X150912501Y-85475000D01*
X150769643Y-85403571D01*
X150555358Y-85403571D01*
X150412501Y-85475000D01*
X150341072Y-85546429D01*
X150269643Y-85689286D01*
X150269643Y-86117857D01*
X150341072Y-86260714D01*
X150412501Y-86332143D01*
X150555358Y-86403571D01*
X150769643Y-86403571D01*
X149626786Y-85403571D02*
X149626786Y-86903571D01*
X149626786Y-85475000D02*
X149483929Y-85403571D01*
X149198215Y-85403571D01*
X149055358Y-85475000D01*
X148983929Y-85546429D01*
X148912500Y-85689286D01*
X148912500Y-86117857D01*
X148983929Y-86260714D01*
X149055358Y-86332143D01*
X149198215Y-86403571D01*
X149483929Y-86403571D01*
X149626786Y-86332143D01*
X148483929Y-85403571D02*
X147912500Y-85403571D01*
X148269643Y-84903571D02*
X148269643Y-86189286D01*
X148198215Y-86332143D01*
X148055357Y-86403571D01*
X147912500Y-86403571D01*
X147412500Y-86403571D02*
X147412500Y-85403571D01*
X147412500Y-84903571D02*
X147483929Y-84975000D01*
X147412500Y-85046429D01*
X147341072Y-84975000D01*
X147412500Y-84903571D01*
X147412500Y-85046429D01*
X146483928Y-86403571D02*
X146626786Y-86332143D01*
X146698214Y-86260714D01*
X146769643Y-86117857D01*
X146769643Y-85689286D01*
X146698214Y-85546429D01*
X146626786Y-85475000D01*
X146483928Y-85403571D01*
X146269643Y-85403571D01*
X146126786Y-85475000D01*
X146055357Y-85546429D01*
X145983928Y-85689286D01*
X145983928Y-86117857D01*
X146055357Y-86260714D01*
X146126786Y-86332143D01*
X146269643Y-86403571D01*
X146483928Y-86403571D01*
X145341071Y-85403571D02*
X145341071Y-86403571D01*
X145341071Y-85546429D02*
X145269643Y-85475000D01*
X145126785Y-85403571D01*
X144912500Y-85403571D01*
X144769643Y-85475000D01*
X144698214Y-85617857D01*
X144698214Y-86403571D01*
X143341071Y-86403571D02*
X143341071Y-85617857D01*
X143412500Y-85475000D01*
X143555357Y-85403571D01*
X143841071Y-85403571D01*
X143983928Y-85475000D01*
X143341071Y-86332143D02*
X143483928Y-86403571D01*
X143841071Y-86403571D01*
X143983928Y-86332143D01*
X144055357Y-86189286D01*
X144055357Y-86046429D01*
X143983928Y-85903571D01*
X143841071Y-85832143D01*
X143483928Y-85832143D01*
X143341071Y-85760714D01*
X142412499Y-86403571D02*
X142555357Y-86332143D01*
X142626785Y-86189286D01*
X142626785Y-84903571D01*
X140769643Y-86332143D02*
X140626786Y-86403571D01*
X140341071Y-86403571D01*
X140198214Y-86332143D01*
X140126786Y-86189286D01*
X140126786Y-86117857D01*
X140198214Y-85975000D01*
X140341071Y-85903571D01*
X140555357Y-85903571D01*
X140698214Y-85832143D01*
X140769643Y-85689286D01*
X140769643Y-85617857D01*
X140698214Y-85475000D01*
X140555357Y-85403571D01*
X140341071Y-85403571D01*
X140198214Y-85475000D01*
X139483928Y-85403571D02*
X139483928Y-86903571D01*
X139483928Y-85475000D02*
X139341071Y-85403571D01*
X139055357Y-85403571D01*
X138912500Y-85475000D01*
X138841071Y-85546429D01*
X138769642Y-85689286D01*
X138769642Y-86117857D01*
X138841071Y-86260714D01*
X138912500Y-86332143D01*
X139055357Y-86403571D01*
X139341071Y-86403571D01*
X139483928Y-86332143D01*
X137912499Y-86403571D02*
X138055357Y-86332143D01*
X138126785Y-86189286D01*
X138126785Y-84903571D01*
X137341071Y-86403571D02*
X137341071Y-85403571D01*
X137341071Y-84903571D02*
X137412500Y-84975000D01*
X137341071Y-85046429D01*
X137269643Y-84975000D01*
X137341071Y-84903571D01*
X137341071Y-85046429D01*
X136841071Y-85403571D02*
X136269642Y-85403571D01*
X136626785Y-84903571D02*
X136626785Y-86189286D01*
X136555357Y-86332143D01*
X136412499Y-86403571D01*
X136269642Y-86403571D01*
X134626785Y-86403571D02*
X134626785Y-84903571D01*
X134626785Y-85475000D02*
X134483928Y-85403571D01*
X134198214Y-85403571D01*
X134055357Y-85475000D01*
X133983928Y-85546429D01*
X133912499Y-85689286D01*
X133912499Y-86117857D01*
X133983928Y-86260714D01*
X134055357Y-86332143D01*
X134198214Y-86403571D01*
X134483928Y-86403571D01*
X134626785Y-86332143D01*
X132626785Y-86403571D02*
X132626785Y-85617857D01*
X132698214Y-85475000D01*
X132841071Y-85403571D01*
X133126785Y-85403571D01*
X133269642Y-85475000D01*
X132626785Y-86332143D02*
X132769642Y-86403571D01*
X133126785Y-86403571D01*
X133269642Y-86332143D01*
X133341071Y-86189286D01*
X133341071Y-86046429D01*
X133269642Y-85903571D01*
X133126785Y-85832143D01*
X132769642Y-85832143D01*
X132626785Y-85760714D01*
X131269642Y-86332143D02*
X131412499Y-86403571D01*
X131698213Y-86403571D01*
X131841071Y-86332143D01*
X131912499Y-86260714D01*
X131983928Y-86117857D01*
X131983928Y-85689286D01*
X131912499Y-85546429D01*
X131841071Y-85475000D01*
X131698213Y-85403571D01*
X131412499Y-85403571D01*
X131269642Y-85475000D01*
X130626785Y-86403571D02*
X130626785Y-84903571D01*
X130483928Y-85832143D02*
X130055357Y-86403571D01*
X130055357Y-85403571D02*
X130626785Y-85975000D01*
X182876785Y-65853571D02*
X182019642Y-65853571D01*
X182448213Y-67353571D02*
X182448213Y-65853571D01*
X181519642Y-67353571D02*
X181519642Y-66353571D01*
X181519642Y-65853571D02*
X181591071Y-65925000D01*
X181519642Y-65996429D01*
X181448214Y-65925000D01*
X181519642Y-65853571D01*
X181519642Y-65996429D01*
X181019642Y-66353571D02*
X180448213Y-66353571D01*
X180805356Y-65853571D02*
X180805356Y-67139286D01*
X180733928Y-67282143D01*
X180591070Y-67353571D01*
X180448213Y-67353571D01*
X179305356Y-67353571D02*
X179305356Y-66567857D01*
X179376785Y-66425000D01*
X179519642Y-66353571D01*
X179805356Y-66353571D01*
X179948213Y-66425000D01*
X179305356Y-67282143D02*
X179448213Y-67353571D01*
X179805356Y-67353571D01*
X179948213Y-67282143D01*
X180019642Y-67139286D01*
X180019642Y-66996429D01*
X179948213Y-66853571D01*
X179805356Y-66782143D01*
X179448213Y-66782143D01*
X179305356Y-66710714D01*
X178591070Y-66353571D02*
X178591070Y-67353571D01*
X178591070Y-66496429D02*
X178519642Y-66425000D01*
X178376784Y-66353571D01*
X178162499Y-66353571D01*
X178019642Y-66425000D01*
X177948213Y-66567857D01*
X177948213Y-67353571D01*
X176091070Y-66782143D02*
X174948213Y-66782143D01*
X172233927Y-67210714D02*
X172305356Y-67282143D01*
X172519642Y-67353571D01*
X172662499Y-67353571D01*
X172876784Y-67282143D01*
X173019642Y-67139286D01*
X173091070Y-66996429D01*
X173162499Y-66710714D01*
X173162499Y-66496429D01*
X173091070Y-66210714D01*
X173019642Y-66067857D01*
X172876784Y-65925000D01*
X172662499Y-65853571D01*
X172519642Y-65853571D01*
X172305356Y-65925000D01*
X172233927Y-65996429D01*
X170948213Y-66353571D02*
X170948213Y-67353571D01*
X171591070Y-66353571D02*
X171591070Y-67139286D01*
X171519642Y-67282143D01*
X171376784Y-67353571D01*
X171162499Y-67353571D01*
X171019642Y-67282143D01*
X170948213Y-67210714D01*
X170448213Y-66353571D02*
X169876784Y-66353571D01*
X170233927Y-65853571D02*
X170233927Y-67139286D01*
X170162499Y-67282143D01*
X170019641Y-67353571D01*
X169876784Y-67353571D01*
X169376784Y-66782143D02*
X168233927Y-66782143D01*
X167519641Y-67353571D02*
X167519641Y-65853571D01*
X166948213Y-65853571D01*
X166805355Y-65925000D01*
X166733927Y-65996429D01*
X166662498Y-66139286D01*
X166662498Y-66353571D01*
X166733927Y-66496429D01*
X166805355Y-66567857D01*
X166948213Y-66639286D01*
X167519641Y-66639286D01*
X165162498Y-67210714D02*
X165233927Y-67282143D01*
X165448213Y-67353571D01*
X165591070Y-67353571D01*
X165805355Y-67282143D01*
X165948213Y-67139286D01*
X166019641Y-66996429D01*
X166091070Y-66710714D01*
X166091070Y-66496429D01*
X166019641Y-66210714D01*
X165948213Y-66067857D01*
X165805355Y-65925000D01*
X165591070Y-65853571D01*
X165448213Y-65853571D01*
X165233927Y-65925000D01*
X165162498Y-65996429D01*
X164019641Y-66567857D02*
X163805355Y-66639286D01*
X163733927Y-66710714D01*
X163662498Y-66853571D01*
X163662498Y-67067857D01*
X163733927Y-67210714D01*
X163805355Y-67282143D01*
X163948213Y-67353571D01*
X164519641Y-67353571D01*
X164519641Y-65853571D01*
X164019641Y-65853571D01*
X163876784Y-65925000D01*
X163805355Y-65996429D01*
X163733927Y-66139286D01*
X163733927Y-66282143D01*
X163805355Y-66425000D01*
X163876784Y-66496429D01*
X164019641Y-66567857D01*
X164519641Y-66567857D01*
X161876784Y-67353571D02*
X161876784Y-65853571D01*
X161733927Y-66782143D02*
X161305356Y-67353571D01*
X161305356Y-66353571D02*
X161876784Y-66925000D01*
X160091070Y-67282143D02*
X160233927Y-67353571D01*
X160519641Y-67353571D01*
X160662498Y-67282143D01*
X160733927Y-67139286D01*
X160733927Y-66567857D01*
X160662498Y-66425000D01*
X160519641Y-66353571D01*
X160233927Y-66353571D01*
X160091070Y-66425000D01*
X160019641Y-66567857D01*
X160019641Y-66710714D01*
X160733927Y-66853571D01*
X159519641Y-66353571D02*
X159162498Y-67353571D01*
X158805356Y-66353571D02*
X159162498Y-67353571D01*
X159305356Y-67710714D01*
X159376784Y-67782143D01*
X159519641Y-67853571D01*
X158233927Y-67353571D02*
X158233927Y-65853571D01*
X158233927Y-66425000D02*
X158091070Y-66353571D01*
X157805356Y-66353571D01*
X157662499Y-66425000D01*
X157591070Y-66496429D01*
X157519641Y-66639286D01*
X157519641Y-67067857D01*
X157591070Y-67210714D01*
X157662499Y-67282143D01*
X157805356Y-67353571D01*
X158091070Y-67353571D01*
X158233927Y-67282143D01*
X156662498Y-67353571D02*
X156805356Y-67282143D01*
X156876784Y-67210714D01*
X156948213Y-67067857D01*
X156948213Y-66639286D01*
X156876784Y-66496429D01*
X156805356Y-66425000D01*
X156662498Y-66353571D01*
X156448213Y-66353571D01*
X156305356Y-66425000D01*
X156233927Y-66496429D01*
X156162498Y-66639286D01*
X156162498Y-67067857D01*
X156233927Y-67210714D01*
X156305356Y-67282143D01*
X156448213Y-67353571D01*
X156662498Y-67353571D01*
X154876784Y-67353571D02*
X154876784Y-66567857D01*
X154948213Y-66425000D01*
X155091070Y-66353571D01*
X155376784Y-66353571D01*
X155519641Y-66425000D01*
X154876784Y-67282143D02*
X155019641Y-67353571D01*
X155376784Y-67353571D01*
X155519641Y-67282143D01*
X155591070Y-67139286D01*
X155591070Y-66996429D01*
X155519641Y-66853571D01*
X155376784Y-66782143D01*
X155019641Y-66782143D01*
X154876784Y-66710714D01*
X154162498Y-67353571D02*
X154162498Y-66353571D01*
X154162498Y-66639286D02*
X154091070Y-66496429D01*
X154019641Y-66425000D01*
X153876784Y-66353571D01*
X153733927Y-66353571D01*
X152591070Y-67353571D02*
X152591070Y-65853571D01*
X152591070Y-67282143D02*
X152733927Y-67353571D01*
X153019641Y-67353571D01*
X153162499Y-67282143D01*
X153233927Y-67210714D01*
X153305356Y-67067857D01*
X153305356Y-66639286D01*
X153233927Y-66496429D01*
X153162499Y-66425000D01*
X153019641Y-66353571D01*
X152733927Y-66353571D01*
X152591070Y-66425000D01*
X150733927Y-66353571D02*
X150733927Y-67853571D01*
X150733927Y-66425000D02*
X150591070Y-66353571D01*
X150305356Y-66353571D01*
X150162499Y-66425000D01*
X150091070Y-66496429D01*
X150019641Y-66639286D01*
X150019641Y-67067857D01*
X150091070Y-67210714D01*
X150162499Y-67282143D01*
X150305356Y-67353571D01*
X150591070Y-67353571D01*
X150733927Y-67282143D01*
X149162498Y-67353571D02*
X149305356Y-67282143D01*
X149376784Y-67139286D01*
X149376784Y-65853571D01*
X147948213Y-67353571D02*
X147948213Y-66567857D01*
X148019642Y-66425000D01*
X148162499Y-66353571D01*
X148448213Y-66353571D01*
X148591070Y-66425000D01*
X147948213Y-67282143D02*
X148091070Y-67353571D01*
X148448213Y-67353571D01*
X148591070Y-67282143D01*
X148662499Y-67139286D01*
X148662499Y-66996429D01*
X148591070Y-66853571D01*
X148448213Y-66782143D01*
X148091070Y-66782143D01*
X147948213Y-66710714D01*
X147448213Y-66353571D02*
X146876784Y-66353571D01*
X147233927Y-65853571D02*
X147233927Y-67139286D01*
X147162499Y-67282143D01*
X147019641Y-67353571D01*
X146876784Y-67353571D01*
X145805356Y-67282143D02*
X145948213Y-67353571D01*
X146233927Y-67353571D01*
X146376784Y-67282143D01*
X146448213Y-67139286D01*
X146448213Y-66567857D01*
X146376784Y-66425000D01*
X146233927Y-66353571D01*
X145948213Y-66353571D01*
X145805356Y-66425000D01*
X145733927Y-66567857D01*
X145733927Y-66710714D01*
X146448213Y-66853571D01*
X144162499Y-66353571D02*
X143591070Y-66353571D01*
X143948213Y-67353571D02*
X143948213Y-66067857D01*
X143876785Y-65925000D01*
X143733927Y-65853571D01*
X143591070Y-65853571D01*
X142876784Y-67353571D02*
X143019642Y-67282143D01*
X143091070Y-67210714D01*
X143162499Y-67067857D01*
X143162499Y-66639286D01*
X143091070Y-66496429D01*
X143019642Y-66425000D01*
X142876784Y-66353571D01*
X142662499Y-66353571D01*
X142519642Y-66425000D01*
X142448213Y-66496429D01*
X142376784Y-66639286D01*
X142376784Y-67067857D01*
X142448213Y-67210714D01*
X142519642Y-67282143D01*
X142662499Y-67353571D01*
X142876784Y-67353571D01*
X141733927Y-67353571D02*
X141733927Y-66353571D01*
X141733927Y-66639286D02*
X141662499Y-66496429D01*
X141591070Y-66425000D01*
X141448213Y-66353571D01*
X141305356Y-66353571D01*
X139876785Y-65853571D02*
X139376785Y-67353571D01*
X138876785Y-65853571D01*
X138162499Y-67353571D02*
X138305357Y-67282143D01*
X138376785Y-67210714D01*
X138448214Y-67067857D01*
X138448214Y-66639286D01*
X138376785Y-66496429D01*
X138305357Y-66425000D01*
X138162499Y-66353571D01*
X137948214Y-66353571D01*
X137805357Y-66425000D01*
X137733928Y-66496429D01*
X137662499Y-66639286D01*
X137662499Y-67067857D01*
X137733928Y-67210714D01*
X137805357Y-67282143D01*
X137948214Y-67353571D01*
X138162499Y-67353571D01*
X137162499Y-66353571D02*
X136805356Y-67353571D01*
X136448214Y-66353571D02*
X136805356Y-67353571D01*
X136948214Y-67710714D01*
X137019642Y-67782143D01*
X137162499Y-67853571D01*
X135233928Y-67353571D02*
X135233928Y-66567857D01*
X135305357Y-66425000D01*
X135448214Y-66353571D01*
X135733928Y-66353571D01*
X135876785Y-66425000D01*
X135233928Y-67282143D02*
X135376785Y-67353571D01*
X135733928Y-67353571D01*
X135876785Y-67282143D01*
X135948214Y-67139286D01*
X135948214Y-66996429D01*
X135876785Y-66853571D01*
X135733928Y-66782143D01*
X135376785Y-66782143D01*
X135233928Y-66710714D01*
X133876785Y-66353571D02*
X133876785Y-67567857D01*
X133948214Y-67710714D01*
X134019642Y-67782143D01*
X134162499Y-67853571D01*
X134376785Y-67853571D01*
X134519642Y-67782143D01*
X133876785Y-67282143D02*
X134019642Y-67353571D01*
X134305356Y-67353571D01*
X134448214Y-67282143D01*
X134519642Y-67210714D01*
X134591071Y-67067857D01*
X134591071Y-66639286D01*
X134519642Y-66496429D01*
X134448214Y-66425000D01*
X134305356Y-66353571D01*
X134019642Y-66353571D01*
X133876785Y-66425000D01*
X132591071Y-67282143D02*
X132733928Y-67353571D01*
X133019642Y-67353571D01*
X133162499Y-67282143D01*
X133233928Y-67139286D01*
X133233928Y-66567857D01*
X133162499Y-66425000D01*
X133019642Y-66353571D01*
X132733928Y-66353571D01*
X132591071Y-66425000D01*
X132519642Y-66567857D01*
X132519642Y-66710714D01*
X133233928Y-66853571D01*
X131876785Y-67353571D02*
X131876785Y-66353571D01*
X131876785Y-66639286D02*
X131805357Y-66496429D01*
X131733928Y-66425000D01*
X131591071Y-66353571D01*
X131448214Y-66353571D01*
D12*
G36*
X246277383Y-92278497D02*
X246198415Y-92281100D01*
X246125460Y-92285022D01*
X246061442Y-92290248D01*
X246020771Y-92295054D01*
X245820493Y-92330198D01*
X245626031Y-92378556D01*
X245437647Y-92439998D01*
X245255599Y-92514395D01*
X245080147Y-92601618D01*
X244911553Y-92701536D01*
X244750074Y-92814020D01*
X244595972Y-92938941D01*
X244449506Y-93076169D01*
X244444472Y-93081243D01*
X244308265Y-93228885D01*
X244184575Y-93383819D01*
X244073516Y-93545794D01*
X243975202Y-93714562D01*
X243889749Y-93889872D01*
X243817270Y-94071475D01*
X243757880Y-94259122D01*
X243711695Y-94452563D01*
X243678827Y-94651550D01*
X243665152Y-94778015D01*
X243661446Y-94837806D01*
X243659504Y-94908405D01*
X243659234Y-94986221D01*
X243660546Y-95067667D01*
X243663348Y-95149154D01*
X243667549Y-95227093D01*
X243673059Y-95297897D01*
X243679785Y-95357976D01*
X243679906Y-95358857D01*
X243714312Y-95557345D01*
X243762164Y-95750451D01*
X243823306Y-95937874D01*
X243897588Y-96119310D01*
X243984856Y-96294457D01*
X244084959Y-96463013D01*
X244197742Y-96624675D01*
X244323055Y-96779141D01*
X244460743Y-96926108D01*
X244479576Y-96944678D01*
X244627456Y-97079657D01*
X244781641Y-97201679D01*
X244942321Y-97310838D01*
X245109688Y-97407225D01*
X245283931Y-97490932D01*
X245465242Y-97562049D01*
X245653810Y-97620670D01*
X245849828Y-97666886D01*
X246049800Y-97700294D01*
X246077181Y-97703019D01*
X246116523Y-97705611D01*
X246165273Y-97708009D01*
X246220877Y-97710156D01*
X246280783Y-97711993D01*
X246342438Y-97713461D01*
X246403287Y-97714502D01*
X246460778Y-97715058D01*
X246512358Y-97715070D01*
X246555474Y-97714479D01*
X246587573Y-97713228D01*
X246594086Y-97712763D01*
X246792671Y-97689282D01*
X246987608Y-97651820D01*
X247178465Y-97600550D01*
X247364809Y-97535646D01*
X247546206Y-97457280D01*
X247722225Y-97365626D01*
X247892433Y-97260857D01*
X248056396Y-97143146D01*
X248095976Y-97112024D01*
X248141667Y-97073625D01*
X248193845Y-97026711D01*
X248249777Y-96973974D01*
X248306729Y-96918109D01*
X248361969Y-96861808D01*
X248412763Y-96807766D01*
X248456378Y-96758675D01*
X248465524Y-96747869D01*
X248588767Y-96589846D01*
X248698790Y-96426097D01*
X248795699Y-96256381D01*
X248879598Y-96080459D01*
X248950592Y-95898090D01*
X248975842Y-95816057D01*
X247664514Y-95816057D01*
X247664514Y-96186172D01*
X247294400Y-96186172D01*
X247294400Y-95816057D01*
X245487371Y-95816057D01*
X245487371Y-96186172D01*
X245117257Y-96186172D01*
X245117257Y-95816057D01*
X245487371Y-95816057D01*
X247294400Y-95816057D01*
X247664514Y-95816057D01*
X248975842Y-95816057D01*
X249008785Y-95709035D01*
X249054283Y-95513054D01*
X249084560Y-95329829D01*
X249090207Y-95276043D01*
X249094439Y-95210741D01*
X249097273Y-95136850D01*
X249097988Y-95097600D01*
X247294400Y-95097600D01*
X247294400Y-95467714D01*
X246924286Y-95467714D01*
X246924286Y-95097600D01*
X246575943Y-95097600D01*
X246575943Y-95467714D01*
X246205828Y-95467714D01*
X246205828Y-95097600D01*
X245835714Y-95097600D01*
X245835714Y-95467714D01*
X245487371Y-95467714D01*
X245487371Y-95097600D01*
X245835714Y-95097600D01*
X246205828Y-95097600D01*
X246575943Y-95097600D01*
X246924286Y-95097600D01*
X247294400Y-95097600D01*
X249097988Y-95097600D01*
X249098723Y-95057296D01*
X249098805Y-94975006D01*
X249097533Y-94892909D01*
X249094923Y-94813930D01*
X249090990Y-94740998D01*
X249085749Y-94677039D01*
X249080976Y-94636772D01*
X249045848Y-94437000D01*
X249031442Y-94379143D01*
X246924286Y-94379143D01*
X246924286Y-94727486D01*
X246575943Y-94727486D01*
X246575943Y-94379143D01*
X246205828Y-94379143D01*
X246205828Y-94727486D01*
X245835714Y-94727486D01*
X245835714Y-94379143D01*
X246205828Y-94379143D01*
X246575943Y-94379143D01*
X246924286Y-94379143D01*
X249031442Y-94379143D01*
X248997483Y-94242763D01*
X248936061Y-94054427D01*
X248861761Y-93872358D01*
X248774763Y-93696922D01*
X248740491Y-93638914D01*
X246575943Y-93638914D01*
X246575943Y-94009029D01*
X246205828Y-94009029D01*
X246205828Y-93638914D01*
X246575943Y-93638914D01*
X248740491Y-93638914D01*
X248675247Y-93528486D01*
X248563390Y-93367416D01*
X248439374Y-93214079D01*
X248322768Y-93088305D01*
X248175838Y-92949194D01*
X248022166Y-92822926D01*
X247861720Y-92709484D01*
X247694466Y-92608851D01*
X247520373Y-92521012D01*
X247339407Y-92445951D01*
X247151536Y-92383650D01*
X246956728Y-92334095D01*
X246754950Y-92297269D01*
X246713828Y-92291440D01*
X246660149Y-92285806D01*
X246594948Y-92281584D01*
X246521149Y-92278757D01*
X246441673Y-92277310D01*
X246359444Y-92277228D01*
X246277383Y-92278497D01*
X246277383Y-92278497D01*
G37*
X246277383Y-92278497D02*
X246198415Y-92281100D01*
X246125460Y-92285022D01*
X246061442Y-92290248D01*
X246020771Y-92295054D01*
X245820493Y-92330198D01*
X245626031Y-92378556D01*
X245437647Y-92439998D01*
X245255599Y-92514395D01*
X245080147Y-92601618D01*
X244911553Y-92701536D01*
X244750074Y-92814020D01*
X244595972Y-92938941D01*
X244449506Y-93076169D01*
X244444472Y-93081243D01*
X244308265Y-93228885D01*
X244184575Y-93383819D01*
X244073516Y-93545794D01*
X243975202Y-93714562D01*
X243889749Y-93889872D01*
X243817270Y-94071475D01*
X243757880Y-94259122D01*
X243711695Y-94452563D01*
X243678827Y-94651550D01*
X243665152Y-94778015D01*
X243661446Y-94837806D01*
X243659504Y-94908405D01*
X243659234Y-94986221D01*
X243660546Y-95067667D01*
X243663348Y-95149154D01*
X243667549Y-95227093D01*
X243673059Y-95297897D01*
X243679785Y-95357976D01*
X243679906Y-95358857D01*
X243714312Y-95557345D01*
X243762164Y-95750451D01*
X243823306Y-95937874D01*
X243897588Y-96119310D01*
X243984856Y-96294457D01*
X244084959Y-96463013D01*
X244197742Y-96624675D01*
X244323055Y-96779141D01*
X244460743Y-96926108D01*
X244479576Y-96944678D01*
X244627456Y-97079657D01*
X244781641Y-97201679D01*
X244942321Y-97310838D01*
X245109688Y-97407225D01*
X245283931Y-97490932D01*
X245465242Y-97562049D01*
X245653810Y-97620670D01*
X245849828Y-97666886D01*
X246049800Y-97700294D01*
X246077181Y-97703019D01*
X246116523Y-97705611D01*
X246165273Y-97708009D01*
X246220877Y-97710156D01*
X246280783Y-97711993D01*
X246342438Y-97713461D01*
X246403287Y-97714502D01*
X246460778Y-97715058D01*
X246512358Y-97715070D01*
X246555474Y-97714479D01*
X246587573Y-97713228D01*
X246594086Y-97712763D01*
X246792671Y-97689282D01*
X246987608Y-97651820D01*
X247178465Y-97600550D01*
X247364809Y-97535646D01*
X247546206Y-97457280D01*
X247722225Y-97365626D01*
X247892433Y-97260857D01*
X248056396Y-97143146D01*
X248095976Y-97112024D01*
X248141667Y-97073625D01*
X248193845Y-97026711D01*
X248249777Y-96973974D01*
X248306729Y-96918109D01*
X248361969Y-96861808D01*
X248412763Y-96807766D01*
X248456378Y-96758675D01*
X248465524Y-96747869D01*
X248588767Y-96589846D01*
X248698790Y-96426097D01*
X248795699Y-96256381D01*
X248879598Y-96080459D01*
X248950592Y-95898090D01*
X248975842Y-95816057D01*
X247664514Y-95816057D01*
X247664514Y-96186172D01*
X247294400Y-96186172D01*
X247294400Y-95816057D01*
X245487371Y-95816057D01*
X245487371Y-96186172D01*
X245117257Y-96186172D01*
X245117257Y-95816057D01*
X245487371Y-95816057D01*
X247294400Y-95816057D01*
X247664514Y-95816057D01*
X248975842Y-95816057D01*
X249008785Y-95709035D01*
X249054283Y-95513054D01*
X249084560Y-95329829D01*
X249090207Y-95276043D01*
X249094439Y-95210741D01*
X249097273Y-95136850D01*
X249097988Y-95097600D01*
X247294400Y-95097600D01*
X247294400Y-95467714D01*
X246924286Y-95467714D01*
X246924286Y-95097600D01*
X246575943Y-95097600D01*
X246575943Y-95467714D01*
X246205828Y-95467714D01*
X246205828Y-95097600D01*
X245835714Y-95097600D01*
X245835714Y-95467714D01*
X245487371Y-95467714D01*
X245487371Y-95097600D01*
X245835714Y-95097600D01*
X246205828Y-95097600D01*
X246575943Y-95097600D01*
X246924286Y-95097600D01*
X247294400Y-95097600D01*
X249097988Y-95097600D01*
X249098723Y-95057296D01*
X249098805Y-94975006D01*
X249097533Y-94892909D01*
X249094923Y-94813930D01*
X249090990Y-94740998D01*
X249085749Y-94677039D01*
X249080976Y-94636772D01*
X249045848Y-94437000D01*
X249031442Y-94379143D01*
X246924286Y-94379143D01*
X246924286Y-94727486D01*
X246575943Y-94727486D01*
X246575943Y-94379143D01*
X246205828Y-94379143D01*
X246205828Y-94727486D01*
X245835714Y-94727486D01*
X245835714Y-94379143D01*
X246205828Y-94379143D01*
X246575943Y-94379143D01*
X246924286Y-94379143D01*
X249031442Y-94379143D01*
X248997483Y-94242763D01*
X248936061Y-94054427D01*
X248861761Y-93872358D01*
X248774763Y-93696922D01*
X248740491Y-93638914D01*
X246575943Y-93638914D01*
X246575943Y-94009029D01*
X246205828Y-94009029D01*
X246205828Y-93638914D01*
X246575943Y-93638914D01*
X248740491Y-93638914D01*
X248675247Y-93528486D01*
X248563390Y-93367416D01*
X248439374Y-93214079D01*
X248322768Y-93088305D01*
X248175838Y-92949194D01*
X248022166Y-92822926D01*
X247861720Y-92709484D01*
X247694466Y-92608851D01*
X247520373Y-92521012D01*
X247339407Y-92445951D01*
X247151536Y-92383650D01*
X246956728Y-92334095D01*
X246754950Y-92297269D01*
X246713828Y-92291440D01*
X246660149Y-92285806D01*
X246594948Y-92281584D01*
X246521149Y-92278757D01*
X246441673Y-92277310D01*
X246359444Y-92277228D01*
X246277383Y-92278497D01*
M02*
