%TF.GenerationSoftware,KiCad,Pcbnew,4.0.6*%
%TF.CreationDate,2017-11-04T14:18:22-07:00*%
%TF.ProjectId,Titan,546974616E2E6B696361645F70636200,rev?*%
%TF.FileFunction,Legend,Top*%
%FSLAX46Y46*%
G04 Gerber Fmt 4.6, Leading zero omitted, Abs format (unit mm)*
G04 Created by KiCad (PCBNEW 4.0.6) date 11/04/17 14:18:22*
%MOMM*%
%LPD*%
G01*
G04 APERTURE LIST*
%ADD10C,0.100000*%
%ADD11C,0.300000*%
G04 APERTURE END LIST*
D10*
D11*
X128766964Y-108422321D02*
X129052678Y-109422321D01*
X129338392Y-108708036D01*
X129624107Y-109422321D01*
X129909821Y-108422321D01*
X130338393Y-108422321D02*
X130624107Y-109422321D01*
X130909821Y-108708036D01*
X131195536Y-109422321D01*
X131481250Y-108422321D01*
X131909822Y-108422321D02*
X132195536Y-109422321D01*
X132481250Y-108708036D01*
X132766965Y-109422321D01*
X133052679Y-108422321D01*
X133624108Y-109279464D02*
X133695536Y-109350893D01*
X133624108Y-109422321D01*
X133552679Y-109350893D01*
X133624108Y-109279464D01*
X133624108Y-109422321D01*
X134981251Y-109422321D02*
X134981251Y-108636607D01*
X134909822Y-108493750D01*
X134766965Y-108422321D01*
X134481251Y-108422321D01*
X134338394Y-108493750D01*
X134981251Y-109350893D02*
X134838394Y-109422321D01*
X134481251Y-109422321D01*
X134338394Y-109350893D01*
X134266965Y-109208036D01*
X134266965Y-109065179D01*
X134338394Y-108922321D01*
X134481251Y-108850893D01*
X134838394Y-108850893D01*
X134981251Y-108779464D01*
X135695537Y-109422321D02*
X135695537Y-108422321D01*
X135695537Y-107922321D02*
X135624108Y-107993750D01*
X135695537Y-108065179D01*
X135766965Y-107993750D01*
X135695537Y-107922321D01*
X135695537Y-108065179D01*
X136695537Y-107922321D02*
X136838394Y-107922321D01*
X136981251Y-107993750D01*
X137052680Y-108065179D01*
X137124109Y-108208036D01*
X137195537Y-108493750D01*
X137195537Y-108850893D01*
X137124109Y-109136607D01*
X137052680Y-109279464D01*
X136981251Y-109350893D01*
X136838394Y-109422321D01*
X136695537Y-109422321D01*
X136552680Y-109350893D01*
X136481251Y-109279464D01*
X136409823Y-109136607D01*
X136338394Y-108850893D01*
X136338394Y-108493750D01*
X136409823Y-108208036D01*
X136481251Y-108065179D01*
X136552680Y-107993750D01*
X136695537Y-107922321D01*
X137695537Y-107922321D02*
X138624108Y-107922321D01*
X138124108Y-108493750D01*
X138338394Y-108493750D01*
X138481251Y-108565179D01*
X138552680Y-108636607D01*
X138624108Y-108779464D01*
X138624108Y-109136607D01*
X138552680Y-109279464D01*
X138481251Y-109350893D01*
X138338394Y-109422321D01*
X137909822Y-109422321D01*
X137766965Y-109350893D01*
X137695537Y-109279464D01*
X139266965Y-109279464D02*
X139338393Y-109350893D01*
X139266965Y-109422321D01*
X139195536Y-109350893D01*
X139266965Y-109279464D01*
X139266965Y-109422321D01*
X139981251Y-109422321D02*
X139981251Y-108422321D01*
X139981251Y-108565179D02*
X140052679Y-108493750D01*
X140195537Y-108422321D01*
X140409822Y-108422321D01*
X140552679Y-108493750D01*
X140624108Y-108636607D01*
X140624108Y-109422321D01*
X140624108Y-108636607D02*
X140695537Y-108493750D01*
X140838394Y-108422321D01*
X141052679Y-108422321D01*
X141195537Y-108493750D01*
X141266965Y-108636607D01*
X141266965Y-109422321D01*
X142552679Y-109350893D02*
X142409822Y-109422321D01*
X142124108Y-109422321D01*
X141981251Y-109350893D01*
X141909822Y-109208036D01*
X141909822Y-108636607D01*
X141981251Y-108493750D01*
X142124108Y-108422321D01*
X142409822Y-108422321D01*
X142552679Y-108493750D01*
X142624108Y-108636607D01*
X142624108Y-108779464D01*
X141909822Y-108922321D01*
M02*
